<svg width="30" height="30" viewBox="0 0 30 30" fill="none" xmlns="http://www.w3.org/2000/svg">
<path d="M25.3125 0H4.6875C2.09999 0.00320435 0.00320435 2.09999 0 4.6875V25.3125C0.00320435 27.9 2.09999 29.9968 4.6875 30H25.3125C27.9 29.9968 29.9968 27.9 30 25.3125V4.6875C29.997 2.09999 27.9 0.00320435 25.3125 0ZM28.125 25.3125C28.125 26.8657 26.8659 28.125 25.3125 28.125H4.6875C3.13431 28.125 1.875 26.8659 1.875 25.3125V4.6875C1.875 3.13431 3.13408 1.875 4.6875 1.875H25.3125C26.8657 1.875 28.125 3.13408 28.125 4.6875V25.3125Z" fill="#3C1913"/>
<path d="M12.1875 4.6875H6.5625C5.52704 4.6875 4.6875 5.52704 4.6875 6.5625V12.1875C4.6875 13.223 5.52704 14.0625 6.5625 14.0625H12.1875C13.223 14.0625 14.0625 13.223 14.0625 12.1875V6.5625C14.0625 5.52704 13.223 4.6875 12.1875 4.6875ZM6.5625 12.1875V6.5625H12.1875V12.1875H6.5625Z" fill="#3C1913"/>
<path d="M23.4375 4.6875H17.8125C16.777 4.6875 15.9375 5.52704 15.9375 6.5625V12.1875C15.9375 13.223 16.777 14.0625 17.8125 14.0625H23.4375C24.473 14.0625 25.3125 13.223 25.3125 12.1875V6.5625C25.3125 5.52704 24.473 4.6875 23.4375 4.6875ZM17.8125 12.1875V6.5625H23.4375V12.1875H17.8125Z" fill="#3C1913"/>
<path d="M23.4375 15.9375H17.8125C16.777 15.9375 15.9375 16.777 15.9375 17.8125V23.4375C15.9375 24.473 16.777 25.3125 17.8125 25.3125H23.4375C24.473 25.3125 25.3125 24.473 25.3125 23.4375V17.8125C25.3125 16.777 24.473 15.9375 23.4375 15.9375ZM17.8125 23.4375V17.8125H23.4375V23.4375H17.8125Z" fill="#3C1913"/>
<path d="M12.1875 15.9375H6.5625C5.52704 15.9375 4.6875 16.777 4.6875 17.8125V23.4375C4.6875 24.473 5.52704 25.3125 6.5625 25.3125H12.1875C13.223 25.3125 14.0625 24.473 14.0625 23.4375V17.8125C14.0625 16.777 13.223 15.9375 12.1875 15.9375ZM6.5625 23.4375V17.8125H12.1875V23.4375H6.5625Z" fill="#3C1913"/>
</svg>
