<svg width="1920" height="168" viewBox="0 0 1920 168" fill="none" xmlns="http://www.w3.org/2000/svg">
<path d="M0 117.6L42.6667 109.2C85.3333 100.8 170.667 84 256 69.9825C341.333 56.175 426.667 44.625 512 50.4C597.333 56.175 682.667 78.225 768 78.3825C853.333 78.225 938.667 56.175 1024 53.1825C1109.33 50.4 1194.67 67.2 1237.33 75.6L1280 84V-1.52588e-05H1237.33C1194.67 -1.52588e-05 1109.33 -1.52588e-05 1024 -1.52588e-05C938.667 -1.52588e-05 853.333 -1.52588e-05 768 -1.52588e-05C682.667 -1.52588e-05 597.333 -1.52588e-05 512 -1.52588e-05C426.667 -1.52588e-05 341.333 -1.52588e-05 256 -1.52588e-05C170.667 -1.52588e-05 85.3333 -1.52588e-05 42.6667 -1.52588e-05H0V117.6Z" fill="#FF8877" fill-opacity="0.8"/>
<path d="M0 24L42.6667 34.0125C85.3333 43.875 170.667 64.125 256 78C341.333 91.875 426.667 100.125 512 94.0125C597.333 88.125 682.667 67.875 768 58.0125C853.333 48 938.667 48 1024 58.0125C1109.33 67.875 1194.67 88.125 1237.33 97.9875L1280 108V0H1237.33C1194.67 0 1109.33 0 1024 0C938.667 0 853.333 0 768 0C682.667 0 597.333 0 512 0C426.667 0 341.333 0 256 0C170.667 0 85.3333 0 42.6667 0H0V24Z" fill="#FF8877" fill-opacity="0.6"/>
</svg>
