<svg width="25" height="25" viewBox="0 0 25 25" fill="none" xmlns="http://www.w3.org/2000/svg">
<path d="M12.5 0C5.59653 0 0 5.59653 0 12.5C0 19.4036 5.59653 25 12.5 25C19.4036 25 25 19.4036 25 12.5C24.9918 5.59978 19.4002 0.0082016 12.5 0ZM12.5 23.4375C6.45942 23.4375 1.5625 18.5405 1.5625 12.5C1.5625 6.45942 6.45942 1.5625 12.5 1.5625C18.5405 1.5625 23.4375 6.45942 23.4375 12.5C23.431 18.5379 18.5379 23.431 12.5 23.4375Z" fill="#008505"/>
<path d="M8.59368 16.0827L5.83203 13.3203L4.72729 14.4251L8.04131 17.7398C8.34648 18.0448 8.84087 18.0448 9.14604 17.7398L19.0898 7.79609L17.9851 6.69135L8.59368 16.0827Z" fill="#008505"/>
</svg>
