<svg width="25" height="25" viewBox="0 0 25 25" fill="none" xmlns="http://www.w3.org/2000/svg">
<path d="M25 3.125H15.625V1.5625C15.625 0.699615 14.9254 0 14.0625 0H10.9375C10.0746 0 9.375 0.699615 9.375 1.5625V3.125H0V4.6875H3.125V21.0938C3.12767 23.25 4.87499 24.9973 7.03125 25H17.9688C20.125 24.9973 21.8723 23.25 21.875 21.0938V4.6875H25V3.125ZM10.9375 1.5625H14.0625V3.125H10.9375V1.5625ZM20.3125 21.0938C20.3125 22.3881 19.2633 23.4375 17.9688 23.4375H7.03125C5.73692 23.4375 4.6875 22.3883 4.6875 21.0938V4.6875H20.3125V21.0938Z" fill="#FF8877"/>
<path d="M7.03125 6.25H8.59375V21.875H7.03125V6.25Z" fill="#FF8877"/>
<path d="M11.7188 6.25H13.2812V21.875H11.7188V6.25Z" fill="#FF8877"/>
<path d="M16.4062 6.25H17.9688V21.875H16.4062V6.25Z" fill="#FF8877"/>
</svg>
