<svg width="20" height="20" viewBox="0 0 20 20" fill="none" xmlns="http://www.w3.org/2000/svg">
<path d="M19.0254 0.97332C17.7245 -0.32444 15.6187 -0.32444 14.3179 0.97332L1.13603 14.1551C1.04341 14.2479 0.980085 14.366 0.954297 14.4946L0.0135938 19.1995C-0.0599535 19.5598 0.172285 19.9115 0.532545 19.985C0.620588 20.003 0.711225 20.003 0.799268 19.985L5.50736 19.0437C5.636 19.0179 5.7541 18.9546 5.84687 18.862L19.0286 5.68005C20.325 4.37847 20.3236 2.27306 19.0254 0.97332ZM2.54884 14.6251L11.9638 5.21008L14.7885 8.03478L5.37354 17.4498L2.54884 14.6251ZM12.9051 4.26876L13.3765 3.79742L16.2013 6.62213L15.73 7.09347L12.9051 4.26876ZM2.01616 15.9752L4.02345 17.9825L1.51429 18.4845L2.01616 15.9752ZM18.084 4.73934L17.1426 5.68081L14.3179 2.85595L15.2592 1.91464C16.0393 1.13461 17.3039 1.13461 18.084 1.91464C18.864 2.69466 18.864 3.95931 18.084 4.73934Z" fill="#FF8877"/>
</svg>
