<svg width="46" height="45" viewBox="0 0 46 45" fill="none" xmlns="http://www.w3.org/2000/svg">
<path fill-rule="evenodd" clip-rule="evenodd" d="M22.791 42.8859C11.5505 42.8859 2.40533 33.741 2.40533 22.5C2.40533 11.2589 11.5505 2.11412 22.791 2.11412C34.032 2.11412 43.1771 11.2589 43.1771 22.5C43.1771 33.741 34.032 42.8859 22.791 42.8859ZM22.791 0C10.3848 0 0.291229 10.0934 0.291229 22.5C0.291229 34.9066 10.3848 45 22.791 45C35.1978 45 45.2912 34.9066 45.2912 22.5C45.2912 10.0934 35.1978 0 22.791 0Z" fill="#3C1913"/>
<path fill-rule="evenodd" clip-rule="evenodd" d="M40.6175 18.8544C39.3626 12.7184 34.923 7.56652 29.0307 5.40939C28.4825 5.2087 27.8754 5.49033 27.6746 6.03863C27.4738 6.58678 27.7561 7.19383 28.3043 7.39467C33.5126 9.30158 37.4373 13.8552 38.5472 19.2783C38.6499 19.7787 39.0893 20.1236 39.5816 20.1236C39.6511 20.1236 39.7235 20.1165 39.7945 20.102C40.3668 19.985 40.7353 19.4264 40.6175 18.8544Z" fill="#3C1913"/>
<path fill-rule="evenodd" clip-rule="evenodd" d="M22.7653 4.30338C18.6488 4.30338 14.7629 5.64341 11.53 8.17851C11.0706 8.53866 10.9903 9.20309 11.3505 9.66245C11.559 9.92822 11.8695 10.0675 12.1831 10.0675C12.4111 10.0675 12.6411 9.99376 12.8346 9.842C15.6916 7.60166 19.126 6.41732 22.7653 6.41732C23.3497 6.41732 23.8224 5.94421 23.8224 5.36042C23.8224 4.77663 23.3497 4.30338 22.7653 4.30338Z" fill="#3C1913"/>
<path fill-rule="evenodd" clip-rule="evenodd" d="M30.8865 34.2785C30.3323 34.659 29.7328 35.0184 29.0986 35.3476C24.9791 37.4814 18.8799 38.481 14.1186 34.884C10.8447 32.4105 9.14588 29.031 9.06887 24.8406C9.00997 21.6346 9.96586 19.125 9.97492 19.1008C9.97945 19.0902 9.98247 19.0795 9.987 19.0691C10.5699 17.4156 11.7689 15.9357 13.1219 15.1534C13.2684 15.0674 13.4179 14.9904 13.5689 14.9225C13.587 14.9149 13.6052 14.9059 13.6233 14.8983C14.6667 14.4408 15.7042 14.4287 16.7084 14.8605C18.0357 15.4329 18.457 16.1909 19.0928 17.3386C19.8916 18.7775 20.8853 20.5686 23.9266 22.3943C26.0014 23.6401 28.1427 24.1248 30.0303 24.5535C33.3752 25.3132 34.8686 25.7676 34.9758 28.5431C34.9758 28.5599 34.9773 28.5765 34.9773 28.5929C35.0347 30.3538 33.4174 32.5404 30.8865 34.2785ZM37.09 28.5252C37.0719 27.9408 37.0009 27.4183 36.8861 26.9517C36.1069 23.7654 33.2619 23.119 30.4985 22.4924C28.7649 22.0983 26.8003 21.6527 25.0154 20.5822C22.4588 19.0478 21.6872 17.6572 20.9412 16.3132C20.2496 15.0658 19.5353 13.7763 17.545 12.9201C16.0047 12.2557 14.3557 12.2708 12.7762 12.9609C12.6659 13.0092 12.5572 13.0606 12.4485 13.1148C12.2189 13.2297 11.9924 13.3596 11.7704 13.5C11.7674 13.503 11.7659 13.5045 11.7659 13.5045C10.1063 14.5646 8.71253 16.3374 7.99826 18.3502C7.89557 18.6191 6.90496 21.3069 6.95328 24.7998C7.02123 29.6396 9.05833 33.7092 12.8441 36.5708C15.5245 38.5943 18.5401 39.3825 21.4712 39.3825C24.6077 39.3825 27.6459 38.481 30.0711 37.2247C30.7688 36.8622 31.4257 36.4711 32.0357 36.0574C35.2417 33.8814 37.1731 31.0651 37.09 28.5252Z" fill="#3C1913"/>
<path fill-rule="evenodd" clip-rule="evenodd" d="M18.602 23.7828C18.602 25.5772 17.1463 27.0319 15.3523 27.0319C13.5579 27.0319 12.1032 25.5772 12.1032 23.7828C12.1032 21.9884 13.5579 20.5338 15.3523 20.5338C17.1463 20.5338 18.602 21.9884 18.602 23.7828Z" fill="#FF8877"/>
<path fill-rule="evenodd" clip-rule="evenodd" d="M15.3523 21.5908C14.1437 21.5908 13.1603 22.5742 13.1603 23.7828C13.1603 24.9915 14.1437 25.9748 15.3523 25.9748C16.5604 25.9748 17.545 24.9915 17.545 23.7828C17.545 22.5742 16.5604 21.5908 15.3523 21.5908ZM15.3523 28.0889C12.9779 28.0889 11.0462 26.1571 11.0462 23.7828C11.0462 21.4084 12.9779 19.4766 15.3523 19.4766C17.7262 19.4766 19.6591 21.4084 19.6591 23.7828C19.6591 26.1571 17.7262 28.0889 15.3523 28.0889Z" fill="#3C1913"/>
<path fill-rule="evenodd" clip-rule="evenodd" d="M26.5194 25.6983C27.7879 26.9672 27.7879 29.0244 26.5194 30.2932C25.2509 31.5621 23.1942 31.5621 21.9242 30.2932C20.6558 29.0244 20.6558 26.9672 21.9242 25.6983C23.1942 24.4296 25.2509 24.4296 26.5194 25.6983Z" fill="#FF8877"/>
<path fill-rule="evenodd" clip-rule="evenodd" d="M24.2226 25.8048C23.6608 25.8048 23.0991 26.0185 22.6717 26.4458C22.258 26.8599 22.0299 27.4101 22.0299 27.9956C22.0299 28.5812 22.258 29.1318 22.6717 29.5458C23.5264 30.4004 24.9172 30.4004 25.7719 29.5458C26.1857 29.1318 26.4137 28.5812 26.4137 27.9956C26.4137 27.4101 26.1857 26.8599 25.7719 26.4458C25.3446 26.0185 24.7828 25.8048 24.2226 25.8048ZM24.2226 32.2999C23.1187 32.2999 22.0163 31.8801 21.1767 31.0405C20.3643 30.2273 19.9158 29.146 19.9158 27.9956C19.9158 26.8455 20.3643 25.7642 21.1767 24.951C22.8559 23.272 25.5877 23.272 27.2669 24.951C28.0808 25.7642 28.5278 26.8455 28.5278 27.9956C28.5278 29.146 28.0808 30.2273 27.2669 31.0405C26.4273 31.8801 25.3249 32.2999 24.2226 32.2999Z" fill="#3C1913"/>
<path fill-rule="evenodd" clip-rule="evenodd" d="M27.4723 34.9491C27.0902 34.9491 26.7218 34.7415 26.533 34.3794C26.2642 33.8614 26.465 33.2231 26.983 32.9539C27.9585 32.4476 28.8313 31.8213 29.5079 31.1435C29.9201 30.7305 30.5906 30.7302 31.0028 31.1427C31.4166 31.5554 31.4166 32.2247 31.0043 32.6377C30.1753 33.4668 29.1228 34.2249 27.9585 34.8297C27.803 34.9108 27.6369 34.9491 27.4723 34.9491Z" fill="#3C1913"/>
<path fill-rule="evenodd" clip-rule="evenodd" d="M21.8215 36.3825C19.5126 36.3825 17.3925 35.6935 15.6208 34.3545C15.155 34.0025 15.0627 33.3397 15.4147 32.8739C15.7666 32.408 16.429 32.3157 16.8957 32.6677C19.0611 34.3036 21.4697 34.3953 23.1096 34.1841C23.6895 34.1095 24.2196 34.5185 24.2935 35.0974C24.3675 35.6765 23.9598 36.2064 23.3799 36.2809C22.8529 36.3488 22.332 36.3825 21.8215 36.3825Z" fill="#3C1913"/>
<path fill-rule="evenodd" clip-rule="evenodd" d="M36.8861 26.9517C36.1069 23.7654 33.2619 23.119 30.4985 22.4924C28.7649 22.0983 26.8003 21.6527 25.0153 20.5822C22.4588 19.0478 21.6871 17.6572 20.9411 16.3133C20.2495 15.0658 19.5353 13.7763 17.545 12.9201C16.0047 12.2557 14.3557 12.2708 12.7761 12.9609C12.6659 13.0092 12.5572 13.0606 12.4484 13.1148C12.2189 13.2297 11.9924 13.3596 11.7704 13.5C11.9501 13.3641 17.0119 9.61912 27.4707 15.4027C34.479 19.276 36.3953 24.1022 36.8861 26.9517Z" fill="#FF8877"/>
</svg>
