<svg width="46" height="46" viewBox="0 0 46 46" fill="none" xmlns="http://www.w3.org/2000/svg">
<path fill-rule="evenodd" clip-rule="evenodd" d="M22.7912 43.5783C11.5503 43.5783 2.40533 34.4333 2.40533 23.1923C2.40533 11.9513 11.5503 2.80644 22.7912 2.80644C34.0322 2.80644 43.1771 11.9513 43.1771 23.1923C43.1771 34.4333 34.0322 43.5783 22.7912 43.5783ZM22.7912 0.692322C10.3845 0.692322 0.291229 10.7858 0.291229 23.1923C0.291229 35.5989 10.3845 45.6923 22.7912 45.6923C35.1979 45.6923 45.2912 35.5989 45.2912 23.1923C45.2912 10.7858 35.1979 0.692322 22.7912 0.692322Z" fill="#3C1913"/>
<path fill-rule="evenodd" clip-rule="evenodd" d="M40.6176 19.5467C39.3627 13.4107 34.9231 8.2588 29.0308 6.10167C28.4827 5.90068 27.8756 6.18276 27.6748 6.73092C27.4755 7.27907 27.7563 7.88612 28.3045 8.08696C33.5127 9.99387 37.4374 14.5475 38.5473 19.9706C38.65 20.471 39.0894 20.8159 39.5817 20.8159C39.6511 20.8159 39.7236 20.8088 39.7946 20.7943C40.3669 20.6773 40.7354 20.1187 40.6176 19.5467Z" fill="#3C1913"/>
<path fill-rule="evenodd" clip-rule="evenodd" d="M22.7656 4.99573C18.6491 4.99573 14.7637 6.33576 11.5307 8.87086C11.0716 9.23101 10.9901 9.89544 11.351 10.3548C11.5593 10.6206 11.8704 10.7598 12.183 10.7598C12.411 10.7598 12.6421 10.6861 12.8354 10.5344C15.6924 8.29402 19.1263 7.10967 22.7656 7.10967C23.35 7.10967 23.8226 6.63657 23.8226 6.05277C23.8226 5.46898 23.35 4.99573 22.7656 4.99573Z" fill="#3C1913"/>
<path fill-rule="evenodd" clip-rule="evenodd" d="M33.2228 14.1159L29.3404 27.4773L29.3359 27.4873L28.306 31.0934L28.2834 31.1569V31.1585L26.3142 37.8445L25.1001 41.9338C24.9627 42.3974 24.5006 42.6932 24.0204 42.6163C19.7651 41.9504 15.9642 40.2667 12.7282 37.6089C10.4027 35.7008 8.50903 33.4066 7.07748 30.7629C8.42597 32.9798 10.1203 34.9277 12.1407 36.5866C15.3768 39.2443 19.1792 40.9281 23.4345 41.594C23.9147 41.6709 24.3768 41.375 24.5142 40.9114L25.7268 36.8222L27.6959 30.1359V30.1344L27.7186 30.0708L28.747 26.4642L28.7515 26.4545L32.6354 13.0933C32.6505 13.0453 32.661 12.995 32.6671 12.9453C32.7501 12.9769 32.8272 13.0213 32.8981 13.0779L32.9057 13.0838C33.2047 13.3293 33.3315 13.744 33.2228 14.1159Z" fill="#FF8877"/>
<path fill-rule="evenodd" clip-rule="evenodd" d="M22.8984 39.5418C19.3271 38.8487 16.1243 37.3522 13.3699 35.0918C10.7907 32.9739 8.78838 30.3313 7.41422 27.2271L9.58418 26.0385C11.0203 28.6742 12.9093 30.9639 15.2122 32.8542C17.6736 34.8751 20.4838 36.3405 23.575 37.2208L22.8984 39.5418ZM29.6454 16.3902L27.0919 25.1506L25.5894 30.3112L25.4021 30.9515L24.1156 35.3668C21.2751 34.5581 18.6959 33.2158 16.4384 31.3627C14.6293 29.8777 13.1011 28.1231 11.8734 26.1282C11.6651 25.7943 11.4687 25.4549 11.2785 25.1089L12.1498 24.6314L18.5313 21.1371L30.1135 14.7902L29.6454 16.3902ZM32.3183 12.0613L32.3107 12.0553C32.0087 11.8078 31.5527 11.8368 31.2084 12.0234L16.5698 20.0902L16.5683 20.0899L12.1921 22.4481L12.1815 22.4407L5.70937 25.9739C5.28202 26.2072 5.10081 26.7157 5.28202 27.1676C5.7894 28.4351 6.3889 29.6341 7.07598 30.7648C8.42598 32.9818 10.1203 34.9286 12.1407 36.5866C15.3768 39.2443 19.1792 40.928 23.4345 41.594C23.9147 41.6708 24.3768 41.375 24.5142 40.9114L25.7268 36.8222L27.6959 30.1359V30.1344L27.7186 30.0708L28.7469 26.4642L28.7515 26.4545L32.6354 13.0933C32.6505 13.0453 32.661 12.995 32.6671 12.9453C32.7079 12.6153 32.578 12.2754 32.3183 12.0613Z" fill="#3C1913"/>
<path fill-rule="evenodd" clip-rule="evenodd" d="M22.8984 39.5418C19.3271 38.8472 16.1243 37.3522 13.3699 35.0915C10.7907 32.9736 8.78838 30.331 7.41422 27.2274L9.58418 26.0393C11.0218 28.6734 12.9093 30.9637 15.2107 32.854C17.6736 34.8756 20.4838 36.3405 23.575 37.2209L22.8984 39.5418Z" fill="#FF8877"/>
<path fill-rule="evenodd" clip-rule="evenodd" d="M18.6144 25.9627C17.3067 27.5525 14.957 27.7822 13.3654 26.4758C12.7598 25.9786 12.3506 25.3307 12.1498 24.6322L18.5298 21.1367C19.7228 22.4829 19.7922 24.5307 18.6144 25.9627Z" fill="#FF8877"/>
<path fill-rule="evenodd" clip-rule="evenodd" d="M22.1011 31.5576C21.6556 32.0989 20.8553 32.1771 20.3132 31.7324C19.7711 31.2876 19.6941 30.4885 20.1395 29.9473C20.5835 29.4061 21.3838 29.3279 21.9259 29.7726C22.4681 30.2172 22.5466 31.0164 22.1011 31.5576Z" fill="#FF8877"/>
<path fill-rule="evenodd" clip-rule="evenodd" d="M27.1432 21.2193C26.441 21.9719 25.2602 22.0134 24.5082 21.3121C23.7546 20.611 23.7139 19.4325 24.416 18.6801C25.1182 17.9276 26.2976 17.8859 27.0511 18.5872C27.8031 19.2885 27.8454 20.4669 27.1432 21.2193Z" fill="#FF8877"/>
<path fill-rule="evenodd" clip-rule="evenodd" d="M25.5879 30.3118C24.5821 30.0017 23.8105 29.116 23.7018 28.0038C23.5553 26.5259 24.638 25.2101 26.1179 25.0663C26.4561 25.0332 26.7853 25.0637 27.0919 25.1504L25.5879 30.3118Z" fill="#FF8877"/>
<path fill-rule="evenodd" clip-rule="evenodd" d="M22.903 24.8878C22.4575 25.429 21.6572 25.5072 21.1166 25.0625C20.5745 24.618 20.4959 23.8187 20.9414 23.2775C21.3869 22.7363 22.1872 22.658 22.7293 23.1028C23.2699 23.5473 23.3485 24.3465 22.903 24.8878Z" fill="#FF8877"/>
</svg>
