<svg width="46" height="46" viewBox="0 0 46 46" fill="none" xmlns="http://www.w3.org/2000/svg">
<path fill-rule="evenodd" clip-rule="evenodd" d="M23.8622 43.7321C13.1563 43.7321 4.44666 34.587 4.44666 23.3462C4.44666 12.1051 13.1563 2.96027 23.8622 2.96027C34.5681 2.96027 43.2778 12.1051 43.2778 23.3462C43.2778 34.587 34.5681 43.7321 23.8622 43.7321ZM23.8622 0.846176C12.0461 0.846176 2.4332 10.9396 2.4332 23.3462C2.4332 35.7527 12.0461 45.8462 23.8622 45.8462C35.6784 45.8462 45.2912 35.7527 45.2912 23.3462C45.2912 10.9396 35.6784 0.846176 23.8622 0.846176Z" fill="#3C1913"/>
<path fill-rule="evenodd" clip-rule="evenodd" d="M40.84 19.7006C39.6449 13.5644 35.4152 8.41266 29.8048 6.25553C29.2813 6.05469 28.7046 6.33662 28.5133 6.88477C28.322 7.43293 28.591 8.03998 29.113 8.24081C34.0734 10.1477 37.8112 14.7012 38.8668 20.1244C38.9646 20.6247 39.3846 20.9698 39.8534 20.9698C39.9196 20.9698 39.9872 20.9627 40.0562 20.9482C40.5999 20.8311 40.9522 20.2726 40.84 19.7006Z" fill="#3C1913"/>
<path fill-rule="evenodd" clip-rule="evenodd" d="M23.8378 5.14957C19.9158 5.14957 16.2154 6.4896 13.1376 9.0247C12.699 9.38485 12.6228 10.0493 12.9665 10.5086C13.165 10.7747 13.4598 10.9135 13.7589 10.9135C13.9761 10.9135 14.1947 10.84 14.3788 10.6882C17.0999 8.44785 20.3717 7.26366 23.8378 7.26366C24.3943 7.26366 24.8445 6.79041 24.8445 6.20661C24.8445 5.62282 24.3943 5.14957 23.8378 5.14957Z" fill="#3C1913"/>
<path fill-rule="evenodd" clip-rule="evenodd" d="M23.3157 29.1222L22.3248 30.9191L21.3166 32.7492L20.3257 34.5448C20.2897 34.6082 20.238 34.6339 20.2006 34.6445C20.1646 34.6549 20.1071 34.6596 20.0467 34.6233L19.8597 34.5101C19.7993 34.4723 19.7749 34.4195 19.7648 34.3802C19.7547 34.3409 19.7504 34.2805 19.7864 34.2171L22.7764 28.7945C22.8138 28.7265 22.8828 28.6873 22.9533 28.6873C22.9878 28.6873 23.0237 28.6977 23.0554 28.7158L23.2423 28.8307C23.3027 28.8668 23.3272 28.9213 23.3373 28.9606C23.3459 28.9998 23.3516 29.0586 23.3157 29.1222ZM15.8069 24.5571L12.8169 29.9799C12.781 30.0431 12.7292 30.0688 12.6918 30.0795C12.6558 30.0901 12.5983 30.0946 12.5379 30.0567L12.3509 29.9435C12.2905 29.9074 12.2661 29.853 12.256 29.8138C12.2459 29.7745 12.2416 29.7156 12.2776 29.6522L13.2685 27.8552L14.2767 26.025L15.2676 24.228C15.3035 24.1661 15.3539 24.1389 15.3913 24.1299C15.4071 24.1253 15.4243 24.1222 15.4459 24.1222C15.4747 24.1222 15.5106 24.1284 15.5466 24.151L15.7336 24.2643C15.8299 24.3232 15.863 24.4545 15.8069 24.5571ZM27.2693 33.9255L24.0679 31.9792L25.0588 30.1821C25.355 29.6431 25.4341 29.0165 25.2817 28.4155C25.1293 27.8145 24.764 27.3116 24.2505 27.0005L24.0636 26.8873C23.0065 26.244 21.6474 26.6245 21.0347 27.7343L20.0438 29.5314L19.214 29.027L20.271 27.1108C20.5486 26.6049 20.3847 25.9586 19.9043 25.6655C19.4225 25.3742 18.807 25.5463 18.528 26.0507L17.4709 27.9685L16.5591 27.4128L17.55 25.6158C18.1627 24.5059 17.8002 23.0789 16.7417 22.4356L16.5548 22.3208C16.0428 22.0098 15.4459 21.9265 14.8735 22.0868C14.3011 22.2468 13.8222 22.6318 13.5259 23.1693L12.535 24.9665L11.7052 24.462L12.7623 22.5443C13.0398 22.0398 12.8759 21.3936 12.3955 21.1007C11.9137 20.8077 11.2982 20.9799 11.0192 21.4858L9.96211 23.402L1.80326 18.4413C1.32147 18.1485 0.705923 18.3207 0.426914 18.825C0.147905 19.3309 0.313297 19.9771 0.793652 20.2702L8.95394 25.2322L7.84797 27.2346C7.56896 27.7403 7.73435 28.3868 8.21471 28.6797C8.37435 28.7764 8.54693 28.8217 8.71807 28.8217C9.06612 28.8217 9.40409 28.6329 9.59106 28.2945L10.6956 26.2908L11.5254 26.7952L10.5345 28.5921C10.2382 29.1297 10.1577 29.7579 10.3102 30.3589C10.4626 30.9599 10.8293 31.4613 11.3428 31.7737L11.5283 31.887C11.8706 32.0953 12.2517 32.201 12.6357 32.201C12.8284 32.201 13.0211 32.1755 13.211 32.1227C13.7834 31.9611 14.2623 31.5775 14.5586 31.0384L15.5495 29.243L16.4627 29.7972L15.3568 31.801C15.0777 32.3069 15.2431 32.9532 15.7235 33.246C15.8831 33.3428 16.0557 33.3881 16.2269 33.3881C16.5749 33.3881 16.9129 33.1994 17.0998 32.8611L18.2044 30.8572L19.0342 31.3616L18.0433 33.1586C17.747 33.6962 17.6665 34.3228 17.8189 34.9238C17.9728 35.5249 18.3381 36.0276 18.8516 36.3388L19.0371 36.452C19.3794 36.6604 19.7605 36.7676 20.1445 36.7676C20.3372 36.7676 20.5299 36.7405 20.7198 36.6875C21.2922 36.5275 21.7711 36.1425 22.0673 35.6049L23.0583 33.8079L26.2611 35.7544C26.4193 35.8509 26.5933 35.8978 26.7645 35.8978C27.1111 35.8978 27.4491 35.7089 27.636 35.3692C27.915 34.865 27.7511 34.2186 27.2693 33.9255Z" fill="#3C1913"/>
<path fill-rule="evenodd" clip-rule="evenodd" d="M15.7336 24.2643L15.5466 24.151C15.5106 24.1284 15.4747 24.1222 15.4459 24.1222C15.4243 24.1222 15.4071 24.1254 15.3913 24.1299C15.3539 24.139 15.3035 24.1661 15.2676 24.228L14.2767 26.025L13.2685 27.8552L12.2776 29.6522C12.2416 29.7156 12.2459 29.7745 12.256 29.8138C12.2661 29.853 12.2905 29.9074 12.3509 29.9435L12.5379 30.0568C12.5983 30.0947 12.6558 30.0901 12.6918 30.0796C12.7292 30.0688 12.781 30.0432 12.8169 29.9799L15.8069 24.5571C15.863 24.4546 15.8299 24.3232 15.7336 24.2643Z" fill="#FF8877"/>
<path fill-rule="evenodd" clip-rule="evenodd" d="M23.3373 28.9606C23.3272 28.9213 23.3027 28.8668 23.2423 28.8307L23.0554 28.7158C23.0237 28.6977 22.9878 28.6873 22.9533 28.6873C22.8828 28.6873 22.8138 28.7265 22.7764 28.7945L19.7864 34.2172C19.7504 34.2806 19.7547 34.341 19.7648 34.3802C19.7749 34.4195 19.7993 34.4724 19.8597 34.5101L20.0467 34.6234C20.1071 34.6596 20.1646 34.6549 20.2006 34.6445C20.238 34.6339 20.2897 34.6083 20.3257 34.5448L21.3166 32.7492L22.3248 30.9192L23.3157 29.1222C23.3516 29.0586 23.3459 28.9999 23.3373 28.9606Z" fill="#FF8877"/>
<path fill-rule="evenodd" clip-rule="evenodd" d="M25.7045 24.1577L25.8915 24.2709C25.9274 24.2936 25.9634 24.2995 25.9922 24.2995C26.0137 24.2995 26.031 24.2966 26.0468 24.2921C26.0842 24.283 26.1345 24.2558 26.1705 24.1939L27.1614 22.3969L28.1696 20.5667L29.1605 18.7698C29.1965 18.7063 29.1921 18.6474 29.1821 18.6082C29.172 18.5689 29.1476 18.5146 29.0871 18.4783L28.9002 18.3651C28.8398 18.3273 28.7823 18.3318 28.7463 18.3424C28.7089 18.3528 28.6571 18.3785 28.6212 18.4419L25.6312 23.8646C25.5751 23.9674 25.6082 24.0988 25.7045 24.1577Z" fill="#FF8877"/>
<path fill-rule="evenodd" clip-rule="evenodd" d="M18.1008 19.4612C18.1109 19.5006 18.1353 19.555 18.1957 19.5912L18.3827 19.7058C18.4143 19.7241 18.4503 19.7347 18.4848 19.7347C18.5553 19.7347 18.6243 19.6954 18.6617 19.6275L21.6517 14.2048C21.6877 14.1414 21.6833 14.0808 21.6733 14.0417C21.6632 14.0025 21.6388 13.9496 21.5784 13.9117L21.3914 13.7985C21.331 13.7624 21.2735 13.7668 21.2375 13.7775C21.2001 13.788 21.1483 13.8137 21.1124 13.8771L20.1215 15.6725L19.1133 17.5028L18.1224 19.2998C18.0864 19.3632 18.0922 19.4221 18.1008 19.4612Z" fill="#FF8877"/>
<path fill-rule="evenodd" clip-rule="evenodd" d="M36.222 24.6735L35.8955 25.264L34.8859 27.0926L34.581 27.6467C34.5034 27.7888 34.2848 27.8854 33.9942 27.9049C33.8389 27.9156 33.6721 27.9036 33.4995 27.8703L34.1683 26.6562L35.1779 24.8275L35.8668 23.5772C36.2234 24.0212 36.3371 24.4636 36.222 24.6735ZM29.1605 18.7692L28.1696 20.5661L27.1614 22.3963L26.1705 24.1932C26.1345 24.2551 26.0842 24.2824 26.0468 24.2915C26.031 24.296 26.0137 24.2989 25.9922 24.2989C25.9634 24.2989 25.9274 24.2928 25.8915 24.2703L25.7045 24.1571C25.6082 24.0982 25.5751 23.9666 25.6312 23.8641L28.6212 18.4413C28.6571 18.3779 28.7089 18.3524 28.7463 18.3418C28.7823 18.3312 28.8398 18.3267 28.9002 18.3645L29.0871 18.4777C29.1476 18.5139 29.172 18.5683 29.1821 18.6076C29.1921 18.6468 29.1965 18.7056 29.1605 18.7692ZM21.6517 14.2042L18.6617 19.6269C18.6243 19.6948 18.5553 19.7341 18.4848 19.7341C18.4503 19.7341 18.4143 19.7235 18.3827 19.7053L18.1957 19.5906C18.1353 19.5542 18.1109 19.5 18.1008 19.4606C18.0922 19.4215 18.0864 19.3626 18.1224 19.2992L19.1133 17.5022L20.1215 15.672L21.1124 13.8765C21.1483 13.8131 21.2001 13.7875 21.2375 13.7769C21.2735 13.7662 21.331 13.7618 21.3914 13.7979L21.5784 13.9111C21.6388 13.9489 21.6632 14.0019 21.6733 14.0411C21.6833 14.0803 21.6877 14.1408 21.6517 14.2042ZM40.6444 28.1512L37.6386 26.324L37.9637 25.7336C38.7805 24.2522 37.9565 22.2031 36.0883 21.0675C35.8581 20.9271 35.582 20.8878 35.3246 20.9603C35.0671 21.0328 34.8471 21.2093 34.7133 21.4526L33.4362 23.769L32.4842 23.1891L33.5901 21.1868C33.8691 20.6808 33.7037 20.0346 33.2234 19.7417C33.0637 19.645 32.8912 19.5997 32.72 19.5997C32.372 19.5997 32.034 19.7885 31.847 20.1267L30.7425 22.1306L29.9127 21.6262L30.9036 19.8292C31.1999 19.2917 31.2804 18.6635 31.1279 18.0625C30.9755 17.4615 30.6088 16.9601 30.0953 16.6474L29.9098 16.5341C29.5675 16.3259 29.1864 16.2202 28.8024 16.2202C28.6097 16.2202 28.417 16.2458 28.2271 16.2987C27.6547 16.4603 27.1758 16.8438 26.8795 17.3829L25.8886 19.1784L24.9754 18.6242L26.0813 16.6203C26.3603 16.1145 26.195 15.468 25.7146 15.1751C25.555 15.0786 25.3824 15.0333 25.2112 15.0333C24.8632 15.0333 24.5252 15.222 24.3383 15.5601L23.2337 17.5641L22.4039 17.0598L23.3948 15.2628C23.6911 14.7252 23.7716 14.0985 23.6192 13.4975C23.4653 12.8965 23.1 12.3937 22.5865 12.0826L22.401 11.9693C22.0587 11.7609 21.6776 11.6537 21.2936 11.6537C21.1009 11.6537 20.9082 11.6809 20.7183 11.7336C20.1459 11.8938 19.667 12.2789 19.3707 12.8163L18.3798 14.6135L15.177 12.667C15.0188 12.5702 14.8448 12.5234 14.6736 12.5234C14.327 12.5234 13.989 12.7123 13.8021 13.0521C13.5231 13.5564 13.687 14.2027 14.1688 14.4955L17.3702 16.4422L16.3793 18.2391C16.083 18.7782 16.0039 19.4049 16.1564 20.0059C16.3088 20.6069 16.6741 21.1096 17.1876 21.4208L17.3745 21.5341C18.4316 22.1774 19.7907 21.7969 20.4034 20.6868L21.3943 18.89L22.2241 19.3943L21.167 21.3105C20.8895 21.8165 21.0534 22.4628 21.5338 22.7557C22.0156 23.047 22.6311 22.875 22.9101 22.3707L23.9672 20.4529L24.879 21.0084L23.8881 22.8056C23.2754 23.9153 23.6379 25.3425 24.6964 25.9858L24.8833 26.1005C25.3953 26.4116 25.9922 26.4945 26.5646 26.3346C27.137 26.1744 27.6159 25.7895 27.9122 25.2519L28.9031 23.4549L29.7329 23.9591L28.6758 25.8771C28.3983 26.3813 28.5622 27.0277 29.0426 27.3207C29.5244 27.6136 30.1399 27.4415 30.4189 26.9355L31.476 25.0193L32.4266 25.5977L31.1697 27.8764C30.8906 28.3821 31.0546 29.0286 31.5364 29.3215C32.2857 29.7776 33.1098 30.0222 33.8835 30.0222C33.9641 30.0222 34.0446 30.0192 34.1237 30.0146C35.1002 29.9482 35.9027 29.4725 36.3241 28.7069L36.629 28.1526L39.6348 29.9799C40.1166 30.2729 40.7322 30.1007 41.0112 29.5962C41.2902 29.0905 41.1248 28.4442 40.6444 28.1512Z" fill="#3C1913"/>
<path fill-rule="evenodd" clip-rule="evenodd" d="M35.8668 23.5772L35.1779 24.8275L34.1683 26.6562L33.4995 27.8703C33.6721 27.9036 33.8389 27.9156 33.9942 27.9049C34.2848 27.8854 34.5034 27.7888 34.581 27.6467L34.8859 27.0926L35.8955 25.264L36.222 24.6735C36.3371 24.4636 36.2234 24.0212 35.8668 23.5772Z" fill="#FF8877"/>
</svg>
