<svg width="41" height="37" viewBox="0 0 41 37" fill="none" xmlns="http://www.w3.org/2000/svg">
<path d="M27.1875 2H21.5625V0H19.6875V2H10.3125V0H8.4375V2H2.8125C1.25908 2 0 3.34326 0 5V27C0 28.657 1.25908 30 2.8125 30H27.1875C28.7409 30 30 28.657 30 27V5C30 3.34326 28.7409 2 27.1875 2ZM1.875 5C1.875 4.44775 2.29477 4 2.8125 4H8.4375V6H10.3125V4H19.6875V6H21.5625V4H27.1875C27.7052 4 28.125 4.44775 28.125 5V8H1.875V5ZM27.1875 28H2.8125C2.29477 28 1.875 27.5522 1.875 27V10H28.125V27C28.125 27.5522 27.7052 28 27.1875 28Z" fill="#502E29"/>
<path d="M9.37497 12H5.62499C5.10727 12 4.6875 12.4477 4.6875 13V17C4.6875 17.5522 5.10727 18 5.62499 18H9.37497C9.8927 18 10.3125 17.5522 10.3125 17V13C10.3125 12.4477 9.8927 12 9.37497 12ZM8.43748 16H6.56249V14H8.43748V16Z" fill="#502E29"/>
<path d="M16.875 12H13.125C12.6073 12 12.1875 12.4477 12.1875 13V17C12.1875 17.5522 12.6073 18 13.125 18H16.875C17.3927 18 17.8125 17.5522 17.8125 17V13C17.8125 12.4477 17.3927 12 16.875 12ZM15.9375 16H14.0625V14H15.9375V16Z" fill="#502E29"/>
<path d="M24.375 12H20.625C20.1073 12 19.6875 12.4477 19.6875 13V17C19.6875 17.5522 20.1073 18 20.625 18H24.375C24.8927 18 25.3125 17.5522 25.3125 17V13C25.3125 12.4477 24.8927 12 24.375 12ZM23.4375 16H21.5625V14H23.4375V16Z" fill="#502E29"/>
<path d="M9.37497 19.9999H5.62499C5.10727 19.9999 4.6875 20.4477 4.6875 20.9999V24.9999C4.6875 25.5522 5.10727 25.9999 5.62499 25.9999H9.37497C9.8927 25.9999 10.3125 25.5522 10.3125 24.9999V20.9999C10.3125 20.4477 9.8927 19.9999 9.37497 19.9999ZM8.43748 23.9999H6.56249V21.9999H8.43748V23.9999Z" fill="#502E29"/>
<path d="M16.875 19.9999H13.125C12.6073 19.9999 12.1875 20.4477 12.1875 20.9999V24.9999C12.1875 25.5522 12.6073 25.9999 13.125 25.9999H16.875C17.3927 25.9999 17.8125 25.5522 17.8125 24.9999V20.9999C17.8125 20.4477 17.3927 19.9999 16.875 19.9999ZM15.9375 23.9999H14.0625V21.9999H15.9375V23.9999Z" fill="#502E29"/>
<path d="M24.375 19.9999H20.625C20.1073 19.9999 19.6875 20.4477 19.6875 20.9999V24.9999C19.6875 25.5522 20.1073 25.9999 20.625 25.9999H24.375C24.8927 25.9999 25.3125 25.5522 25.3125 24.9999V20.9999C25.3125 20.4477 24.8927 19.9999 24.375 19.9999ZM23.4375 23.9999H21.5625V21.9999H23.4375V23.9999Z" fill="#502E29"/>
<rect x="26" y="22" width="9" height="8" fill="#E9B4A8"/>
<path d="M38.6562 22H28.3438C27.05 22.0016 26.0016 23.05 26 24.3438V34.6562C26.0016 35.95 27.05 36.9984 28.3438 37H38.6562C39.95 36.9984 40.9984 35.95 41 34.6562V24.3438C40.9985 23.05 39.95 22.0016 38.6562 22ZM40.0625 34.6562C40.0625 35.4328 39.433 36.0625 38.6562 36.0625H28.3438C27.5672 36.0625 26.9375 35.433 26.9375 34.6562V24.3438C26.9375 23.5672 27.567 22.9375 28.3438 22.9375H38.6562C39.4328 22.9375 40.0625 23.567 40.0625 24.3438V34.6562Z" fill="#502E29"/>
<path d="M33.9688 24.8125H33.0312V29.0312H28.8125V29.9688H33.0312V34.1875H33.9688V29.9688H38.1875V29.0312H33.9688V24.8125Z" fill="#502E29"/>
</svg>
