<svg width="20" height="30" viewBox="0 0 20 30" fill="none" xmlns="http://www.w3.org/2000/svg">
<path d="M0 3C0 1.34315 1.11929 0 2.5 0H17.5C18.8807 0 20 1.34314 20 3V28.5C20 29.0619 19.7383 29.5766 19.322 29.8337C18.9056 30.0909 18.4045 30.0472 18.0235 29.7206L10 22.8434L1.97655 29.7206C1.59553 30.0472 1.09436 30.0909 0.678023 29.8337C0.261684 29.5766 0 29.0619 0 28.5V3ZM17.5 3L2.5 3V25.5852L9.27345 19.7794C9.70807 19.4069 10.2919 19.4069 10.7265 19.7794L17.5 25.5852V3Z" fill="#502E29"/>
</svg>
