<svg width="16" height="15" viewBox="0 0 16 15" fill="none" xmlns="http://www.w3.org/2000/svg">
<path fill-rule="evenodd" clip-rule="evenodd" d="M0.291229 7.5C0.291229 3.3645 3.65573 0 7.79123 0C11.9267 0 15.2912 3.3645 15.2912 7.5C15.2912 11.6355 11.9267 15 7.79123 15C3.65573 15 0.291229 11.6355 0.291229 7.5ZM1.88695 7.49999C1.88695 10.7557 4.53572 13.4041 7.79123 13.4041C11.0467 13.4041 13.6955 10.7557 13.6955 7.49999C13.6955 4.24433 11.0467 1.59586 7.79123 1.59586C4.53572 1.59586 1.88695 4.24433 1.88695 7.49999Z" fill="#3C1913"/>
<path d="M11.6999 7.2684H8.32941V3.2158C8.32941 2.87477 8.0529 2.59827 7.71187 2.59827C7.37083 2.59827 7.09433 2.87477 7.09433 3.2158V7.88594C7.09433 8.22697 7.37083 8.50347 7.71187 8.50347H11.6999C12.041 8.50347 12.3175 8.22697 12.3175 7.88594C12.3175 7.5449 12.041 7.2684 11.6999 7.2684Z" fill="#3C1913"/>
</svg>
