<svg width="45" height="45" viewBox="0 0 45 45" fill="none" xmlns="http://www.w3.org/2000/svg">
<circle cx="22.5" cy="22.5" r="22.5" fill="#502E29"/>
<path d="M27.9375 11.625C27.9375 8.51839 25.4191 6 22.3125 6C19.2059 6 16.6875 8.51839 16.6875 11.625C16.6875 14.7316 19.2059 17.25 22.3125 17.25C25.4177 17.2468 27.9343 14.7302 27.9375 11.625ZM22.3125 15.375C20.2413 15.375 18.5625 13.6962 18.5625 11.625C18.5625 9.55385 20.2413 7.875 22.3125 7.875C24.3837 7.875 26.0625 9.55385 26.0625 11.625C26.0625 13.6962 24.3837 15.375 22.3125 15.375Z" fill="#FF8877"/>
<path d="M22.3125 17.25C16.6197 17.2566 12.0066 21.8698 12 27.5625V35.0625C12 35.5802 12.4198 36 12.9375 36H31.6875C32.2052 36 32.625 35.5802 32.625 35.0625V27.5625C32.6183 21.8698 28.0052 17.2566 22.3125 17.25ZM30.75 34.125H13.875V27.5625C13.875 22.9027 17.6527 19.125 22.3125 19.125C26.9725 19.125 30.75 22.9027 30.75 27.5625V34.125Z" fill="#FF8877"/>
</svg>
