<svg width="15" height="15" viewBox="0 0 15 15" fill="none" xmlns="http://www.w3.org/2000/svg">
<path d="M0.039712 5.66575C0.153352 5.3003 0.49164 5.0492 0.967943 4.97683L4.85012 4.38709L6.58642 0.709968C6.79939 0.258866 7.13242 0 7.5 0C7.86759 0 8.20061 0.258866 8.41358 0.710087L10.1497 4.38709L14.0319 4.97683C14.5084 5.0492 14.8468 5.3003 14.9603 5.66575C15.0738 6.0312 14.9413 6.44222 14.5966 6.79332L11.7873 9.65556L12.4506 13.6973C12.5354 14.2142 12.3909 14.5239 12.2547 14.6928C12.0949 14.8909 11.8619 15 11.5986 15C11.4005 15 11.1898 14.9394 10.9723 14.8198L7.5 12.9117L4.02752 14.82C3.81008 14.9395 3.5994 15 3.4013 15H3.40119C3.13797 15 2.90486 14.8909 2.7451 14.6928C2.60903 14.524 2.46437 14.2142 2.54929 13.6973L3.21247 9.65556L0.403292 6.79332C0.0587101 6.44222 -0.0738134 6.0312 0.039712 5.66575Z" fill="#502E29"/>
</svg>
