<svg width="16" height="15" viewBox="0 0 16 15" fill="none" xmlns="http://www.w3.org/2000/svg">
<path d="M0.330941 5.66575C0.444581 5.3003 0.782869 5.0492 1.25917 4.97683L5.14135 4.38709L6.87765 0.709968C7.09062 0.258866 7.42365 0 7.79123 0C8.15881 0 8.49184 0.258866 8.70481 0.710087L10.4409 4.38709L14.3232 4.97683C14.7996 5.0492 15.138 5.3003 15.2515 5.66575C15.365 6.0312 15.2325 6.44222 14.8878 6.79332L12.0785 9.65556L12.7418 13.6973C12.8266 14.2142 12.6821 14.5239 12.5459 14.6928C12.3861 14.8909 12.1531 15 11.8898 15C11.6917 15 11.481 14.9394 11.2635 14.8198L7.79123 12.9117L4.31875 14.82C4.10131 14.9395 3.89063 15 3.69253 15H3.69242C3.4292 15 3.19608 14.8909 3.03633 14.6928C2.90026 14.524 2.7556 14.2142 2.84052 13.6973L3.5037 9.65556L0.694521 6.79332C0.349939 6.44222 0.217416 6.0312 0.330941 5.66575Z" fill="#3C1913"/>
</svg>
