<svg width="15" height="16" viewBox="0 0 15 16" fill="none" xmlns="http://www.w3.org/2000/svg">
<path d="M0.039712 5.68841C0.153352 5.3215 0.49164 5.0694 0.967943 4.99674L4.85012 4.40464L6.58642 0.712808C6.79939 0.259902 7.13242 0 7.5 0C7.86759 0 8.20061 0.259902 8.41358 0.712928L10.1497 4.40464L14.0319 4.99674C14.5084 5.0694 14.8468 5.3215 14.9603 5.68841C15.0738 6.05532 14.9413 6.46799 14.5966 6.82049L11.7873 9.69419L12.4506 13.7521C12.5354 14.271 12.3909 14.582 12.2547 14.7516C12.0949 14.9505 11.8619 15.06 11.5986 15.06C11.4005 15.06 11.1898 14.9991 10.9723 14.8791L7.5 12.9634L4.02752 14.8792C3.81008 14.9992 3.5994 15.06 3.4013 15.06H3.40119C3.13797 15.06 2.90486 14.9505 2.7451 14.7516C2.60903 14.5821 2.46437 14.271 2.54929 13.7521L3.21247 9.69419L0.403292 6.82049C0.0587101 6.46799 -0.0738134 6.05532 0.039712 5.68841Z" fill="#502E29"/>
</svg>
