<svg width="16" height="16" viewBox="0 0 16 16" fill="none" xmlns="http://www.w3.org/2000/svg">
<path fill-rule="evenodd" clip-rule="evenodd" d="M8 0C7.60791 0 7.25269 0.259902 7.02551 0.712928L5.17371 4.40464L1.03259 4.99674C0.524414 5.0694 0.163452 5.3215 0.0423586 5.68841C-0.0787351 6.05532 0.0626223 6.46799 0.430298 6.82049L3.42688 9.69419L2.71936 13.7521C2.62891 14.271 2.78308 14.582 2.92834 14.7516C3.09876 14.9505 3.34729 15.06 3.62817 15.06C3.83948 15.06 4.06421 14.9991 4.29626 14.8791L8 12.9634V0Z" fill="#502E29"/>
<path fill-rule="evenodd" clip-rule="evenodd" d="M8 0C8.39209 0 8.74731 0.259902 8.97449 0.712928L10.8263 4.40464L14.9674 4.99674C15.4756 5.0694 15.8365 5.3215 15.9576 5.68841C16.0787 6.05532 15.9374 6.46799 15.5697 6.82049L12.5731 9.69419L13.2806 13.7521C13.3711 14.271 13.2169 14.582 13.0717 14.7516C12.9012 14.9505 12.6527 15.06 12.3718 15.06C12.1605 15.06 11.9358 14.9991 11.7037 14.8791L8 12.9634V0Z" fill="#FFEEEC"/>
</svg>
