<svg width="16" height="15" viewBox="0 0 16 15" fill="none" xmlns="http://www.w3.org/2000/svg">
<path fill-rule="evenodd" clip-rule="evenodd" d="M8 0C7.60791 0 7.25269 0.258866 7.02551 0.710087L5.17371 4.38709L1.03259 4.97683C0.524414 5.0492 0.163452 5.3003 0.0423586 5.66575C-0.0787351 6.0312 0.0626223 6.44222 0.430298 6.79332L3.42688 9.65556L2.71936 13.6973C2.62891 14.2142 2.78308 14.5239 2.92834 14.6928C3.09876 14.8909 3.34729 15 3.62817 15C3.83948 15 4.06421 14.9394 4.29626 14.8198L8 12.9117V0Z" fill="#502E29"/>
<path fill-rule="evenodd" clip-rule="evenodd" d="M8 0C8.39209 0 8.74731 0.258866 8.97449 0.710087L10.8263 4.38709L14.9674 4.97683C15.4756 5.0492 15.8365 5.3003 15.9576 5.66575C16.0787 6.0312 15.9374 6.44222 15.5697 6.79332L12.5731 9.65556L13.2806 13.6973C13.3711 14.2142 13.2169 14.5239 13.0717 14.6928C12.9012 14.8909 12.6527 15 12.3718 15C12.1605 15 11.9358 14.9394 11.7037 14.8198L8 12.9117V0Z" fill="#FFEEEC"/>
</svg>
