<svg width="90" height="65" viewBox="0 0 90 65" fill="none" xmlns="http://www.w3.org/2000/svg">
<path d="M0 65V16.1982C0 12.8292 2.61167 10.098 5.83333 10.098H46.6667C49.8883 10.098 52.5 12.8292 52.5 16.1982V46.6993C52.5 50.0684 49.8883 52.7995 46.6667 52.7995H17.5C16.2375 52.7971 15.0086 53.2255 14 54.0196L0 65ZM5.83333 16.1982V52.7995L12.0575 47.9194C13.0656 47.1242 14.2948 46.6958 15.5575 46.6993H46.6667V16.1982H5.83333Z" fill="#502E29"/>
<path d="M62.7598 20.4964H68.3232V21.8235H60.7734V20.6282L66.0205 13.6585H60.8525V12.3138H68.0596V13.4651L62.7598 20.4964Z" fill="#502E29"/>
<path d="M75.1465 14.4253H79.4736V15.4575H73.6016V14.5278L77.6826 9.10693H73.6631V8.06104H79.2686V8.95654L75.1465 14.4253Z" fill="#502E29"/>
<path d="M85.8398 10.1152H89.5488V11H84.5156V10.2031L88.0137 5.55664H84.5684V4.66016H89.373V5.42773L85.8398 10.1152Z" fill="#502E29"/>
<path fill-rule="evenodd" clip-rule="evenodd" d="M23.0383 39.7734C24.5672 39.5193 26.2429 39.3791 28 39.3791C29.757 39.3791 31.4327 39.5193 32.9615 39.7734C32.6548 37.1931 30.5504 35.1961 27.9999 35.1961C25.4494 35.1961 23.345 37.1931 23.0383 39.7734Z" fill="#502E29"/>
<line x1="32" y1="24.2386" x2="42" y2="24.2386" stroke="#502E29"/>
<path d="M24 23.6928H14" stroke="#502E29"/>
</svg>
