<svg width="30" height="30" viewBox="0 0 30 30" fill="none" xmlns="http://www.w3.org/2000/svg">
<path d="M30 15.2885L15.6532 0.288825C15.2856 -0.0962751 14.7144 -0.0962751 14.3468 0.288825L0 15.2885L1.30646 16.8548L4.47899 13.5376V27.8571C4.47899 29.0406 5.33546 30 6.39198 30H23.608C24.6645 30 25.521 29.0406 25.521 27.8571V13.5376L28.6935 16.8592L30 15.2885ZM13.087 27.8571V21.4286H16.913V27.8571H13.087ZM23.608 27.8571H18.8258V21.4286C18.8258 20.2453 17.9693 19.2859 16.913 19.2859H13.087C12.0307 19.2859 11.1742 20.2453 11.1742 21.4286V27.8571H6.39198V12.8574H23.608V27.8571ZM7.17911 10.7145L15 2.53764L22.8209 10.7145H7.17911Z" fill="#FF8877"/>
</svg>
