<svg width="30" height="30" viewBox="0 0 30 30" fill="none" xmlns="http://www.w3.org/2000/svg">
<path d="M27.1875 2H21.5625V0H19.6875V2H10.3125V0H8.4375V2H2.8125C1.25908 2 0 3.34326 0 5V27C0 28.657 1.25908 30 2.8125 30H27.1875C28.7409 30 30 28.657 30 27V5C30 3.34326 28.7409 2 27.1875 2ZM1.875 5C1.875 4.44775 2.29477 4 2.8125 4H8.4375V6H10.3125V4H19.6875V6H21.5625V4H27.1875C27.7052 4 28.125 4.44775 28.125 5V8H1.875V5ZM27.1875 28H2.8125C2.29477 28 1.875 27.5522 1.875 27V10H28.125V27C28.125 27.5522 27.7052 28 27.1875 28Z" fill="#FF8877"/>
<path d="M9.37499 11.9999H5.62501C5.10728 11.9999 4.68752 12.4477 4.68752 12.9999V16.9999C4.68752 17.5522 5.10728 17.9999 5.62501 17.9999H9.37499C9.89272 17.9999 10.3125 17.5522 10.3125 16.9999V12.9999C10.3125 12.4477 9.89272 11.9999 9.37499 11.9999ZM8.43749 15.9999H6.56251V13.9999H8.43749V15.9999Z" fill="#FF8877"/>
<path d="M16.875 11.9999H13.125C12.6073 11.9999 12.1875 12.4477 12.1875 12.9999V16.9999C12.1875 17.5522 12.6073 17.9999 13.125 17.9999H16.875C17.3927 17.9999 17.8125 17.5522 17.8125 16.9999V12.9999C17.8125 12.4477 17.3927 11.9999 16.875 11.9999ZM15.9375 15.9999H14.0625V13.9999H15.9375V15.9999Z" fill="#FF8877"/>
<path d="M24.375 11.9999H20.625C20.1072 11.9999 19.6875 12.4477 19.6875 12.9999V16.9999C19.6875 17.5522 20.1072 17.9999 20.625 17.9999H24.375C24.8927 17.9999 25.3125 17.5522 25.3125 16.9999V12.9999C25.3125 12.4477 24.8927 11.9999 24.375 11.9999ZM23.4375 15.9999H21.5625V13.9999H23.4375V15.9999Z" fill="#FF8877"/>
<path d="M9.37499 19.9999H5.62501C5.10728 19.9999 4.68752 20.4477 4.68752 20.9999V24.9999C4.68752 25.5522 5.10728 25.9999 5.62501 25.9999H9.37499C9.89272 25.9999 10.3125 25.5522 10.3125 24.9999V20.9999C10.3125 20.4477 9.89272 19.9999 9.37499 19.9999ZM8.43749 23.9999H6.56251V21.9999H8.43749V23.9999Z" fill="#FF8877"/>
<path d="M16.875 19.9999H13.125C12.6073 19.9999 12.1875 20.4477 12.1875 20.9999V24.9999C12.1875 25.5522 12.6073 25.9999 13.125 25.9999H16.875C17.3927 25.9999 17.8125 25.5522 17.8125 24.9999V20.9999C17.8125 20.4477 17.3927 19.9999 16.875 19.9999ZM15.9375 23.9999H14.0625V21.9999H15.9375V23.9999Z" fill="#FF8877"/>
<path d="M24.375 19.9999H20.625C20.1072 19.9999 19.6875 20.4477 19.6875 20.9999V24.9999C19.6875 25.5522 20.1072 25.9999 20.625 25.9999H24.375C24.8927 25.9999 25.3125 25.5522 25.3125 24.9999V20.9999C25.3125 20.4477 24.8927 19.9999 24.375 19.9999ZM23.4375 23.9999H21.5625V21.9999H23.4375V23.9999Z" fill="#FF8877"/>
</svg>
