<svg width="30" height="30" viewBox="0 0 30 30" fill="none" xmlns="http://www.w3.org/2000/svg">
<path d="M30 28.6636L18.4135 17.0771C22.0942 12.6585 21.4959 6.09279 17.0771 2.41214C12.6585 -1.26829 6.09279 -0.669993 2.41214 3.74858C-1.26829 8.16715 -0.669993 14.7329 3.74858 18.4135C7.60936 21.6295 13.2163 21.6295 17.0771 18.4135L28.6636 30L30 28.6636ZM10.429 18.9351C5.73116 18.9351 1.92279 15.1268 1.92279 10.429C1.92279 5.73093 5.73116 1.92256 10.429 1.92256C15.1268 1.92256 18.9351 5.73093 18.9351 10.429C18.9297 15.1245 15.1245 18.9294 10.429 18.9351Z" fill="#FF8877"/>
</svg>
