<svg width="25" height="30" viewBox="0 0 25 30" fill="none" xmlns="http://www.w3.org/2000/svg">
<path d="M23.75 9.375H20V4.6875C19.9957 2.09999 17.2 0.00320435 13.75 0H11.25C7.79999 0.00320435 5.00427 2.09999 5 4.6875V9.375H1.25C0.559692 9.375 0 9.79477 0 10.3125V27.1875C0 28.7407 1.67877 30 3.75 30H21.25C23.3209 30 25 28.7409 25 27.1875V10.3125C25 9.79477 24.4403 9.375 23.75 9.375ZM7.5 4.6875C7.5 3.13431 9.17877 1.875 11.25 1.875H13.75C15.8209 1.875 17.5 3.13408 17.5 4.6875V9.375H7.5V4.6875ZM22.5 27.1875C22.5 27.7052 21.9403 28.125 21.25 28.125H3.75C3.05969 28.125 2.5 27.7052 2.5 27.1875V11.25H5V15H7.5V11.25H17.5V15H20V11.25H22.5V27.1875Z" fill="#FF8877"/>
</svg>
