<svg width="21" height="30" viewBox="0 0 21 30" fill="none" xmlns="http://www.w3.org/2000/svg">
<path d="M15.9375 5.625C15.9375 2.51839 13.4191 0 10.3125 0C7.20589 0 4.6875 2.51839 4.6875 5.625C4.6875 8.73161 7.20589 11.25 10.3125 11.25C13.4177 11.2468 15.9343 8.73024 15.9375 5.625ZM10.3125 9.375C8.24135 9.375 6.5625 7.69615 6.5625 5.625C6.5625 3.55385 8.24135 1.875 10.3125 1.875C12.3837 1.875 14.0625 3.55385 14.0625 5.625C14.0625 7.69615 12.3837 9.375 10.3125 9.375Z" fill="#FF8877"/>
<path d="M10.3125 11.25C4.61974 11.2566 0.00663755 15.8698 0 21.5625V29.0625C0 29.5802 0.419769 30 0.937499 30H19.6875C20.2052 30 20.625 29.5802 20.625 29.0625V21.5625C20.6183 15.8698 16.0052 11.2566 10.3125 11.25ZM18.75 28.125H1.875V21.5625C1.875 16.9027 5.65269 13.125 10.3125 13.125C14.9725 13.125 18.75 16.9027 18.75 21.5625V28.125Z" fill="#FF8877"/>
</svg>
