<svg width="26" height="26" viewBox="0 0 26 26" fill="none" xmlns="http://www.w3.org/2000/svg">
<path fill-rule="evenodd" clip-rule="evenodd" d="M2.79124 2.5C2.40961 5.13887 2.03347 12.2657 7.63385 17.8661C13.2342 23.4665 20.3611 23.0904 23 22.7087V17.3089L17.4551 16.3848L16.618 18.059C16.4063 18.4825 15.9734 18.75 15.5 18.75V17.5C15.5 18.75 15.4993 18.75 15.4987 18.75H15.4974L15.4946 18.75L15.4883 18.75L15.4729 18.7498C15.4614 18.7496 15.4474 18.7493 15.431 18.7487C15.3982 18.7477 15.3558 18.7458 15.3045 18.7423C15.2019 18.7355 15.0632 18.7226 14.8935 18.6984C14.5544 18.6499 14.0898 18.5559 13.5422 18.3734C12.4425 18.0068 11.0188 17.2866 9.61608 15.8839C8.21338 14.4812 7.49315 13.0574 7.12661 11.9578C6.94406 11.4101 6.85003 10.9456 6.80159 10.6065C6.77735 10.4368 6.76445 10.2981 6.75761 10.1955C6.75419 10.1441 6.75228 10.1018 6.75122 10.069C6.75069 10.0526 6.75038 10.0386 6.7502 10.0271L6.75001 10.0117L6.74997 10.0054L6.74996 10.0026L6.74996 10.0013C6.74996 10.0006 6.74996 10 7.99996 10H6.74996C6.74996 9.58206 6.95884 9.19177 7.30659 8.95994L10.2127 7.02254L8.40367 2.5H2.79124ZM9.34202 10.6076L11.5994 9.10266C12.5831 8.44689 12.9729 7.19172 12.5339 6.09406L10.7249 1.57152C10.3452 0.622377 9.42593 0 8.40367 0H2.72593C1.59029 0 0.521321 0.788952 0.33489 2.02113C-0.0892471 4.82438 -0.666556 13.1012 5.86608 19.6339C12.3987 26.1665 20.6756 25.5892 23.4788 25.1651C24.711 24.9786 25.5 23.9097 25.5 22.774V17.3089C25.5 16.0868 24.6164 15.0438 23.411 14.8429L17.8661 13.9188C16.7835 13.7384 15.7099 14.2851 15.2191 15.2667L14.7859 16.133C14.6498 16.0996 14.4978 16.0567 14.3327 16.0016C13.5574 15.7432 12.4811 15.2134 11.3838 14.1161C10.2865 13.0188 9.75677 11.9426 9.49832 11.1672C9.42848 10.9577 9.3782 10.7693 9.34202 10.6076Z" fill="#FF8877"/>
</svg>
