<svg width="30" height="30" viewBox="0 0 30 30" fill="none" xmlns="http://www.w3.org/2000/svg">
<path opacity="0.9" fill-rule="evenodd" clip-rule="evenodd" d="M3.80068 0H20.5236C22.6216 0.00259812 24.3219 1.7027 24.3243 3.80068V20.5236C24.3217 22.6216 22.6216 24.3217 20.5236 24.3243H3.80068C1.7027 24.3217 0.00259812 22.6216 0 20.5236V3.80068C0.00259812 1.7027 1.7027 0.00259812 3.80068 0ZM20.5236 1.52027H3.80068C2.54133 1.52027 1.52027 2.54133 1.52027 3.80068V16.4082L7.82405 10.1045C8.12097 9.80771 8.602 9.80771 8.89893 10.1045L11.022 12.2275L16.9457 6.30378C17.2426 6.00703 17.7236 6.00703 18.0205 6.30378L22.8041 11.0873V3.80068C22.8041 2.54115 21.783 1.52027 20.5236 1.52027ZM3.80068 22.8041H20.5236C21.783 22.8041 22.8041 21.783 22.8041 20.5236V13.237L17.4831 7.91609L12.0968 13.3024L16.2776 17.4831H19.0034V19.0034H15.9628C15.7613 19.0034 15.5679 18.9232 15.4254 18.7807L8.36149 11.7168L1.52027 18.558V20.5236C1.52027 21.7832 2.54133 22.8041 3.80068 22.8041ZM14.2905 5.52365C14.2905 6.78299 13.2695 7.80405 12.0101 7.80405C10.7508 7.80405 9.72974 6.78299 9.72974 5.52365C9.72974 4.26412 10.7506 3.24324 12.0101 3.24324C13.2697 3.24324 14.2905 4.26412 14.2905 5.52365ZM12.7703 5.52365C12.7703 5.10387 12.4299 4.76351 12.0101 4.76351C11.5904 4.76351 11.25 5.10387 11.25 5.52365C11.25 5.94343 11.5904 6.28378 12.0101 6.28378C12.4299 6.28378 12.7703 5.94343 12.7703 5.52365Z" fill="#FF8877"/>
<rect x="17.8379" y="17.027" width="7.2973" height="7.2973" fill="#3C1913"/>
<path d="M30.0001 19.3581H25.4392V18.598C25.4392 18.1782 25.0989 17.8378 24.6791 17.8378H23.1588C22.7391 17.8378 22.3987 18.1782 22.3987 18.598V19.3581H17.8379V20.1182H19.3582V28.0997C19.3595 29.1486 20.2095 29.9987 21.2585 30H26.5794C27.6284 29.9987 28.4785 29.1486 28.4798 28.0997V20.1182H30.0001V19.3581ZM23.1588 18.598H24.6791V19.3581H23.1588V18.598ZM27.7196 28.0997C27.7196 28.7293 27.2092 29.2399 26.5794 29.2399H21.2585C20.6288 29.2399 20.1183 28.7294 20.1183 28.0997V20.1182H27.7196V28.0997Z" fill="#FF8877"/>
<path d="M21.2588 20.8784H22.0189V28.4797H21.2588V20.8784Z" fill="#FF8877"/>
<path d="M23.5391 20.8784H24.2992V28.4797H23.5391V20.8784Z" fill="#FF8877"/>
<path d="M25.8193 20.8784H26.5795V28.4797H25.8193V20.8784Z" fill="#FF8877"/>
</svg>
