<svg width="20" height="20" viewBox="0 0 20 20" fill="none" xmlns="http://www.w3.org/2000/svg">
<path d="M19.0249 0.97332C17.724 -0.32444 15.6183 -0.32444 14.3174 0.97332L1.13554 14.1551C1.04292 14.2479 0.979596 14.366 0.953809 14.4946L0.0131055 19.1995C-0.0604418 19.5598 0.171797 19.9115 0.532056 19.985C0.6201 20.003 0.710737 20.003 0.79878 19.985L5.50688 19.0437C5.63551 19.0179 5.75361 18.9546 5.84638 18.862L19.0281 5.68005C20.3245 4.37847 20.3231 2.27306 19.0249 0.97332ZM2.54835 14.6251L11.9633 5.21008L14.788 8.03478L5.37306 17.4498L2.54835 14.6251ZM12.9046 4.26876L13.376 3.79742L16.2008 6.62213L15.7295 7.09347L12.9046 4.26876ZM2.01567 15.9752L4.02296 17.9825L1.51381 18.4845L2.01567 15.9752ZM18.0835 4.73934L17.1422 5.68081L14.3174 2.85595L15.2588 1.91464C16.0388 1.13461 17.3034 1.13461 18.0835 1.91464C18.8635 2.69466 18.8635 3.95931 18.0835 4.73934Z" fill="#FF8877"/>
</svg>
