<svg width="30" height="21" viewBox="0 0 30 21" fill="none" xmlns="http://www.w3.org/2000/svg">
<path d="M27.1875 0H2.8125C1.25908 0 0 1.25931 0 2.8125V17.8125C0 19.3659 1.25908 20.625 2.8125 20.625H27.1875C28.7409 20.625 30 19.3659 30 17.8125V2.8125C30 1.25931 28.7409 0 27.1875 0ZM25.9744 1.875L15 9.18755L4.02557 1.875H25.9744ZM1.875 17.4243V2.8125C1.88004 2.77748 1.8869 2.74269 1.8956 2.70859L10.7146 8.58467L1.875 17.4243ZM3.20068 18.75L12.3065 9.64417L14.4798 11.0925C14.7947 11.3026 15.2053 11.3026 15.5202 11.0925L17.6935 9.64417L26.7995 18.75H3.20068ZM28.125 17.4243L19.2854 8.58467L28.1044 2.70836C28.1131 2.74269 28.12 2.77748 28.125 2.8125V17.4243Z" fill="#FF8877"/>
</svg>
