<svg width="30" height="30" viewBox="0 0 30 30" fill="none" xmlns="http://www.w3.org/2000/svg">
<path d="M0 4.6875L0 12.1875H1.875L1.875 4.6875C1.875 3.13431 3.13408 1.875 4.6875 1.875H25.3125C26.8657 1.875 28.125 3.13408 28.125 4.6875V25.3125C28.125 26.8657 26.8659 28.125 25.3125 28.125H4.6875C3.13431 28.125 1.875 26.8659 1.875 25.3125L1.875 17.8125H0L0 25.3125C0.00320435 27.9 2.09999 29.9968 4.6875 30H25.3125C27.9 29.9968 29.9968 27.9 30 25.3125V4.6875C29.9968 2.09999 27.9 0.00320435 25.3125 0H4.6875C2.09999 0.00297546 0.00320435 2.09999 0 4.6875Z" fill="#FF8877"/>
<path d="M19.3462 19.6406L20.6719 20.9662L25.9753 15.6628C26.3413 15.2966 26.3413 14.7034 25.9753 14.3371L20.6719 9.03372L19.3462 10.3594L23.0493 14.0625L0 14.0625L0 15.9375L23.0493 15.9375L19.3462 19.6406Z" fill="#FF8877"/>
</svg>
