<svg width="30" height="30" viewBox="0 0 30 30" fill="none" xmlns="http://www.w3.org/2000/svg">
<path opacity="0.9" fill-rule="evenodd" clip-rule="evenodd" d="M3.80068 0H20.5236C22.6216 0.00259812 24.3219 1.7027 24.3243 3.80068V20.5236C24.3217 22.6216 22.6216 24.3217 20.5236 24.3243H3.80068C1.7027 24.3217 0.00259812 22.6216 0 20.5236V3.80068C0.00259812 1.7027 1.7027 0.00259812 3.80068 0ZM20.5236 1.52027H3.80068C2.54133 1.52027 1.52027 2.54133 1.52027 3.80068V16.4082L7.82405 10.1045C8.12097 9.80771 8.602 9.80771 8.89893 10.1045L11.022 12.2275L16.9457 6.30378C17.2426 6.00703 17.7236 6.00703 18.0205 6.30378L22.8041 11.0873V3.80068C22.8041 2.54115 21.783 1.52027 20.5236 1.52027ZM3.80068 22.8041H20.5236C21.783 22.8041 22.8041 21.783 22.8041 20.5236V13.237L17.4831 7.91609L12.0968 13.3024L16.2776 17.4831H19.0034V19.0034H15.9628C15.7613 19.0034 15.5679 18.9232 15.4254 18.7807L8.36149 11.7168L1.52027 18.558V20.5236C1.52027 21.7832 2.54133 22.8041 3.80068 22.8041ZM14.2905 5.52365C14.2905 6.78299 13.2695 7.80405 12.0101 7.80405C10.7508 7.80405 9.72974 6.78299 9.72974 5.52365C9.72974 4.26412 10.7506 3.24324 12.0101 3.24324C13.2697 3.24324 14.2905 4.26412 14.2905 5.52365ZM12.7703 5.52365C12.7703 5.10387 12.4299 4.76351 12.0101 4.76351C11.5904 4.76351 11.25 5.10387 11.25 5.52365C11.25 5.94343 11.5904 6.28378 12.0101 6.28378C12.4299 6.28378 12.7703 5.94343 12.7703 5.52365Z" fill="#FF8877"/>
<rect x="17.0273" y="17.027" width="8.91892" height="8.10811" fill="#3C1913"/>
<path d="M28.0997 17.8378H19.7382C18.6892 17.8391 17.8392 18.6892 17.8379 19.7382V28.0997C17.8392 29.1486 18.6892 29.9987 19.7382 30H28.0997C29.1487 29.9987 29.9988 29.1486 30.0001 28.0997V19.7382C29.9988 18.6892 29.1487 17.8391 28.0997 17.8378ZM29.2399 28.0997C29.2399 28.7293 28.7295 29.2399 28.0997 29.2399H19.7382C19.1086 29.2399 18.598 28.7294 18.598 28.0997V19.7382C18.598 19.1085 19.1085 18.598 19.7382 18.598H28.0997C28.7294 18.598 29.2399 19.1084 29.2399 19.7382V28.0997Z" fill="#FF8877"/>
<path d="M24.2989 20.1183H23.5388V23.5389H20.1182V24.299H23.5388V27.7196H24.2989V24.299H27.7195V23.5389H24.2989V20.1183Z" fill="#FF8877"/>
</svg>
