<svg width="31" height="21" viewBox="0 0 31 21" fill="none" xmlns="http://www.w3.org/2000/svg">
<path d="M23.3907 20.9603C27.5318 20.9863 30.9152 16.5305 30.9474 11.0076C30.9796 5.4851 27.6487 0.986675 23.5074 0.960651C19.7264 0.936824 16.515 4.67106 16.016 9.67133L1.89172 9.59714C1.37399 9.59443 0.951518 10.152 0.947893 10.8421L0.921633 15.8422L2.79615 15.852L2.81585 12.1022L6.56511 12.1219L6.54541 15.8717L8.41993 15.8815L8.43962 12.1318L16.0029 12.1715C16.4518 17.1688 19.6154 20.9322 23.3907 20.9603ZM23.4826 3.46075C26.5885 3.47706 29.0888 6.84814 29.067 10.9901C29.0453 15.1321 26.5097 18.4768 23.4038 18.4605C20.298 18.4441 17.7977 15.0731 17.8195 10.9311C17.8442 6.79061 20.3779 3.44841 23.4826 3.46075Z" fill="#FF8877"/>
</svg>
