<svg width="322" height="318" viewBox="0 0 322 318" fill="none" xmlns="http://www.w3.org/2000/svg">
<path opacity="0.9" fill-rule="evenodd" clip-rule="evenodd" d="M200.379 60.3291C217.25 70.4374 232.714 81.27 245.18 97.0316C259.914 115.661 282.207 133.924 278.646 159.287C275.076 184.708 243.024 193.38 228.653 214.717C211.998 239.448 215.141 282.617 188.776 292.729C162.927 302.644 143.902 268.6 120.559 256.176C100.155 245.316 74.5414 243.92 60.7473 224.587C46.2009 204.199 40.3096 176.422 44.7034 149.86C48.9538 124.164 67.7287 104.496 83.9605 84.252C100.102 64.1216 114.717 37.9004 138.372 33.0395C161.748 28.2361 180.479 48.4064 200.379 60.3291Z" fill="#3C1913"/>
<path fill-rule="evenodd" clip-rule="evenodd" d="M94.2133 76.9369C116.83 61.2698 143.067 54.6318 168.869 52.3623C193.779 50.1713 219.656 50.9639 237.734 64.3134C255.073 77.1171 259.215 100.275 263.176 122.003C266.744 141.581 265.588 161.785 259.256 182.384C252.572 204.127 244.022 226.396 226.079 242.681C207.319 259.709 183.206 269.321 159.369 273.044C134.963 276.856 109.29 276.397 91.3237 263.727C73.9033 251.442 74.0035 226.651 65.7458 207.019C56.4543 184.929 34.3786 167.223 39.9753 141.649C45.7241 115.38 70.3168 93.4904 94.2133 76.9369Z" fill="#FF8877"/>
</svg>
